<svg xmlns="http://www.w3.org/2000/svg" viewBox="0 0 200 100" width="200" height="100">
  <rect width="200" height="100" fill="none"/>
  <path d="M133.5,65c-1.8,4.3-3.9,8.4-7.5,12c-2.9,2.9-5.3,4-8.4,4c-3.3,0-5.8-1.9-9.7-1.9c-3.9,0-6.6,1.9-9.9,2c-3.1,0.1-5.5-1.2-8.4-4.1c-5.8-5.9-10.2-16.8-10.2-26.5c0-15.6,10.1-23.8,20.1-23.8c3.8,0,7,1.9,9.4,1.9c2.3,0,5.9-2,10-2c1.7,0,7.7,0.1,11.7,5.9c-0.3,0.2-7,4.1-6.9,12.2c0.1,9.7,8.5,12.9,8.6,13C133.3,57.7,133.5,65,133.5,65z M113.9,25.7c1.8-2.2,3.1-5.3,2.7-8.4c-2.6,0.1-5.8,1.8-7.7,3.9c-1.7,2-3.1,5.1-2.7,8.1C109,29.5,112,28,113.9,25.7z" fill="#555555"/>
</svg>