<svg xmlns="http://www.w3.org/2000/svg" viewBox="0 0 200 100" width="200" height="100">
  <rect width="200" height="100" fill="none"/>
  <path d="M85.5,50c0-1.7,0.3-3.4,0.8-5H65v10h12.1c-0.5,2.8-2.2,5.2-4.7,6.8v5.7h7.6C84.3,63.5,85.5,57.2,85.5,50z" fill="#4285F4"/>
  <path d="M65,70c6.3,0,11.6-2.1,15.5-5.7l-7.6-5.7c-2.1,1.4-4.8,2.2-7.9,2.2c-6.1,0-11.2-4-13-9.4H44v5.9C47.9,65.2,55.9,70,65,70z" fill="#34A853"/>
  <path d="M52,51.4c-0.5-1.4-0.8-2.9-0.8-4.4c0-1.5,0.3-3,0.8-4.4v-5.9h-8c-1.6,3.1-2.5,6.6-2.5,10.3s0.9,7.2,2.5,10.3L52,51.4z" fill="#FBBC05"/>
  <path d="M65,37.6c3.4,0,6.5,1.2,9,3.4l6.7-6.7c-4.1-3.8-9.4-6.1-15.7-6.1c-9.1,0-17.1,4.8-21,11.9l8,5.9C54,41.6,59.1,37.6,65,37.6z" fill="#EA4335"/>
</svg>