<svg xmlns="http://www.w3.org/2000/svg" viewBox="0 0 200 100" width="200" height="100">
  <rect width="200" height="100" fill="none"/>
  <path d="M40,50c0-8.3,6.7-15,15-15h90c8.3,0,15,6.7,15,15s-6.7,15-15,15H55C46.7,65,40,58.3,40,50z M55,60h90c5.5,0,10-4.5,10-10s-4.5-10-10-10H55c-5.5,0-10,4.5-10,10S49.5,60,55,60z" fill="#1428A0"/>
  <path d="M70,50c0-2.8,2.2-5,5-5s5,2.2,5,5s-2.2,5-5,5S70,52.8,70,50z M85,50c0-2.8,2.2-5,5-5s5,2.2,5,5s-2.2,5-5,5S85,52.8,85,50z M100,50c0-2.8,2.2-5,5-5s5,2.2,5,5s-2.2,5-5,5S100,52.8,100,50z M115,50c0-2.8,2.2-5,5-5s5,2.2,5,5s-2.2,5-5,5S115,52.8,115,50z" fill="#1428A0"/>
</svg>